<svg id="Layer_1" data-name="Layer 1" xmlns="http://www.w3.org/2000/svg" viewBox="0 0 200 120"><defs><style>.cls-1{fill:#00b075;}.cls-2{font-size:20px;}.cls-2,.cls-3{fill:#6b7c72;font-family:Bauhaus93, "Bauhaus 93";}.cls-3{font-size:30px;}</style></defs><path class="cls-1" d="M168.4,97.69c-1.4-2.8-2.7-5.7-4.4-8.4-2.8-4.4-3.7-9-3.6-14.2.2-18.5.1-37,0-55.5-.1-12.1-6.2-18.1-18.3-18.1h-83c-13.1,0-19,6.1-18.9,19.4,0,13.8-.4,27.7.1,41.5.4,12.5-.1,24.5-7.9,35.1a2.19,2.19,0,0,0-.3.5c-5,11.1.3,19.5,12.4,19.5H100c18.8,0,37.6.1,56.5-.1C168.5,117.39,173.8,108.49,168.4,97.69Zm-12.8,11.1c-1.1.1-2.2.1-3.3.1H48.3c-8.9,0-11.6-3.9-7.1-11.5,6-10.2,8-20.8,7.5-32.5-.7-14.6-.2-29.1-.2-43.7,0-8,3.9-12,11.9-12,26.4-.1,52.9-.1,79.3,0,8.9,0,12.6,3.9,12.6,12.8v57.4l-90.6-.1a14.82,14.82,0,0,0-4.2.2A3.42,3.42,0,0,0,56,80.74q-.47.06-.93.15a3.53,3.53,0,0,0-2,2.3,3,3,0,0,0,1.7,2.5,19.43,19.43,0,0,0,5.4.5c30.2,0,60.3.1,90.5-.1a13,13,0,0,1,3.81.46A7.61,7.61,0,0,1,156,89.09c1.3,3.5,3.4,6.8,5,10.2C163.3,104.09,161,108.09,155.6,108.79Z"/><path class="cls-1" d="M61.3,73.59h39c13.1,0,26.3,0,39.4-.1,5.7,0,8-2.1,8-7.7.1-14.3.1-28.7,0-43,0-5.4-2-7.7-7.5-7.7q-39.9-.15-79.9,0c-5.6.1-7.4,2.1-7.4,7.8-.1,14.2-.1,28.4,0,42.5C53,71.89,54.7,73.59,61.3,73.59Zm-1.3-48c0-2.4.6-3.7,3.4-3.7,24.6.1,49.3.1,73.9.1a10.46,10.46,0,0,1,1.7.4v43.7H60V51.49C60,42.79,60.1,34.19,60,25.59Z"/><path class="cls-1" d="M97.4,91.79c-7.7,0-15.3-.3-22.9.2-1.9.2-3.7,2.7-5.5,4.1,1.8,1.5,3.6,4.3,5.4,4.4,15.2.4,30.5.4,45.7,0,1.8,0,3.4-3.1,5.1-4.8-1.7-1.3-3.3-3.6-5-3.7C112.6,91.59,105,91.79,97.4,91.79Z"/><text class="cls-2" transform="translate(66.52 40.71) rotate(-20.86)">5</text><text class="cls-3" transform="translate(79.29 62.43)">Job</text></svg>